<svg width="26" height="26" viewBox="0 0 26 26" fill="none" xmlns="http://www.w3.org/2000/svg">
<path fill-rule="evenodd" clip-rule="evenodd" d="M10.216 0.410399C10.1568 0.42358 10.037 0.464428 9.94983 0.501157C9.83414 0.549885 9.7624 0.594619 9.68453 0.666627C9.62582 0.720906 9.55706 0.800668 9.53171 0.843863C9.50637 0.887057 9.47042 0.971189 9.45184 1.0308C9.41891 1.13652 9.41806 1.43055 9.41828 12.8987C9.41846 22.6512 9.42258 24.6735 9.44243 24.7477C9.45561 24.797 9.48493 24.8735 9.50757 24.9178C9.53022 24.9622 9.56977 25.0261 9.59547 25.0599C9.62116 25.0937 9.68935 25.156 9.747 25.1985C9.80667 25.2424 9.90209 25.2911 9.96854 25.3116C10.0835 25.3471 10.1303 25.3476 13.0643 25.3474C15.6294 25.3471 16.059 25.3434 16.1558 25.3206C16.2176 25.3061 16.3099 25.273 16.361 25.2472C16.4121 25.2214 16.4987 25.1548 16.5536 25.0993C16.6084 25.0438 16.6745 24.9541 16.7004 24.8999C16.7263 24.8458 16.7615 24.741 16.7786 24.6671C16.808 24.5405 16.8102 23.8765 16.8171 13.0269C16.8238 2.60324 16.8218 1.49913 16.7961 1.28823C16.7804 1.16019 16.7516 1.00149 16.732 0.935552C16.7106 0.863508 16.6658 0.774218 16.6198 0.711701C16.5776 0.654521 16.4993 0.577678 16.4456 0.540949C16.392 0.504219 16.2998 0.455868 16.2406 0.433501C16.133 0.392832 16.133 0.392832 13.2283 0.389626C10.8573 0.386994 10.3038 0.390808 10.216 0.410399ZM15.0443 2.02121C15.092 2.04572 15.1485 2.094 15.1737 2.13181C15.2186 2.19891 15.2186 2.19891 15.2231 12.8875C15.2276 23.5492 15.2275 23.5762 15.1917 23.6463C15.1644 23.6998 15.1398 23.7212 15.0886 23.736C15.0415 23.7497 14.4367 23.7539 13.07 23.7502C11.1187 23.7449 11.1187 23.7449 11.0573 23.678C10.9959 23.6111 10.9959 23.6111 10.9915 13.1928C10.989 7.46281 10.9877 2.66867 10.9885 2.5392C10.9895 2.38614 10.9985 2.28279 11.0143 2.24371C11.0276 2.21067 11.0575 2.15312 11.0806 2.11583C11.1038 2.07853 11.1487 2.03224 11.1804 2.01292C11.2366 1.97866 11.2823 1.97782 13.0989 1.97776C14.9597 1.97769 14.9598 1.97769 15.0443 2.02121ZM19.1184 7.69686C19.0543 7.7087 18.9575 7.73896 18.9033 7.76411C18.849 7.78925 18.7583 7.85218 18.7017 7.90395C18.6306 7.96901 18.5791 8.03772 18.5352 8.12653C18.4913 8.21525 18.4665 8.29642 18.4549 8.38903C18.4451 8.46766 18.4296 11.8304 18.4172 16.5256C18.4005 22.8981 18.4008 24.5535 18.4185 24.6527C18.4308 24.7212 18.4697 24.8349 18.505 24.9054C18.5403 24.976 18.6081 25.0725 18.6556 25.1199C18.707 25.1712 18.7947 25.2311 18.8719 25.2678C18.959 25.309 19.0492 25.3356 19.1453 25.3483C19.2427 25.3612 20.1533 25.3654 21.9783 25.3612C24.3749 25.3558 24.6777 25.3521 24.7575 25.3267C24.8069 25.3111 24.9033 25.2769 24.9718 25.2508C25.0403 25.2247 25.1382 25.1718 25.1892 25.1333C25.2403 25.0948 25.3153 25.0136 25.3558 24.9529C25.3964 24.8923 25.4438 24.8011 25.4612 24.7504C25.491 24.663 25.493 24.2314 25.4979 16.519C25.5028 8.98234 25.5009 8.37148 25.4734 8.26736C25.457 8.20552 25.4137 8.10882 25.3772 8.05246C25.3407 7.99612 25.2814 7.92435 25.2456 7.89297C25.2097 7.86162 25.145 7.81529 25.1019 7.79004C25.0588 7.76481 24.9838 7.73028 24.9353 7.71334C24.8536 7.68477 24.6433 7.68227 22.0411 7.67894C19.9192 7.67621 19.2066 7.68058 19.1184 7.69686ZM23.6893 9.3103C23.7371 9.33453 23.8045 9.38718 23.8388 9.42731C23.8748 9.46925 23.906 9.52853 23.9124 9.5668C23.9184 9.60342 23.9235 12.7284 23.9236 16.5113C23.9238 22.5832 23.9206 23.3998 23.8968 23.4799C23.8809 23.5332 23.8461 23.5939 23.8123 23.6269C23.7739 23.6643 23.7078 23.6979 23.6142 23.7274C23.4737 23.7717 23.4737 23.7717 21.8743 23.7716C20.2749 23.7714 20.2749 23.7714 20.1809 23.7175C20.1047 23.6739 20.0769 23.6439 20.0343 23.5596C19.9817 23.4556 19.9817 23.4556 19.999 16.4997C20.0164 9.54382 20.0164 9.54382 20.0685 9.43637C20.0985 9.37461 20.142 9.3158 20.1709 9.29807C20.2175 9.26944 20.3435 9.26716 21.9117 9.26673C23.6022 9.26625 23.6022 9.26625 23.6893 9.3103ZM1.24179 14.5864C1.19741 14.5951 1.10356 14.6305 1.03322 14.6651C0.94321 14.7094 0.874142 14.7614 0.799946 14.8406C0.741976 14.9025 0.668049 14.9931 0.635685 15.0419C0.603302 15.0907 0.559014 15.1872 0.537247 15.2562C0.497674 15.3818 0.497674 15.3818 0.501727 20.0273C0.505384 24.2401 0.50845 24.6822 0.534683 24.773C0.550587 24.828 0.584386 24.9114 0.609793 24.9583C0.635201 25.0052 0.698979 25.0842 0.751497 25.1338C0.804034 25.1834 0.899531 25.2486 0.963722 25.2786C1.04156 25.3149 1.14464 25.343 1.27317 25.3628C1.44786 25.3896 1.73968 25.3919 4.38858 25.3866C6.74785 25.3819 7.33414 25.3761 7.43005 25.3567C7.49538 25.3434 7.58973 25.3119 7.63971 25.2866C7.68968 25.2613 7.77551 25.1968 7.83047 25.1432C7.89747 25.0779 7.95087 25.0026 7.99256 24.9147C8.03357 24.8282 8.06055 24.7378 8.07181 24.6492C8.08208 24.5683 8.09112 22.6736 8.09453 19.8857C8.10018 15.2565 8.10018 15.2565 8.06068 15.1341C8.03896 15.0668 8.00147 14.9782 7.97737 14.9372C7.95327 14.8961 7.88628 14.8175 7.82853 14.7625C7.76031 14.6975 7.68582 14.6473 7.61598 14.6192C7.50847 14.576 7.50847 14.576 4.41547 14.5733C2.69317 14.5718 1.28672 14.5776 1.24179 14.5864ZM6.4008 16.1962C6.43259 16.2155 6.4717 16.2618 6.48771 16.2991C6.51432 16.361 6.51611 16.6767 6.5086 20.0021C6.50222 22.8388 6.49555 23.6477 6.47823 23.6842C6.46603 23.7099 6.42659 23.7462 6.39056 23.7648C6.32765 23.7973 6.24502 23.7988 4.29907 23.8034C2.80258 23.807 2.26004 23.8029 2.22325 23.7877C2.19587 23.7764 2.15333 23.7432 2.12877 23.7141C2.08411 23.661 2.08411 23.661 2.08878 19.9452C2.09348 16.2293 2.09348 16.2293 2.13582 16.1951C2.17695 16.1618 2.23691 16.1608 4.26057 16.1609C6.29923 16.161 6.34421 16.1617 6.4008 16.1962Z" fill="#707070"/>
</svg>
