<svg width="26" height="26" viewBox="0 0 26 26" fill="none" xmlns="http://www.w3.org/2000/svg">
<path fill-rule="evenodd" clip-rule="evenodd" d="M12.5773 0.415699C12.4982 0.429516 12.3651 0.461668 12.2816 0.487142C12.1981 0.512617 12.079 0.557283 12.0169 0.586364C11.9549 0.615462 11.7764 0.733678 11.6202 0.849073C11.4641 0.964451 11.2594 1.12223 11.1655 1.19969C11.0715 1.27713 10.9827 1.357 10.9682 1.37717C10.9536 1.39734 8.80478 3.53469 6.19299 6.12683C3.17606 9.12106 1.37862 10.9179 1.26426 11.054C1.16527 11.1718 1.05534 11.3043 1.01998 11.3485C0.984622 11.3926 0.906781 11.5013 0.847032 11.5899C0.787266 11.6785 0.709496 11.8079 0.674209 11.8774C0.633327 11.958 0.59946 12.0615 0.580917 12.1627C0.56491 12.25 0.540162 12.3793 0.525917 12.4501C0.511655 12.5208 0.5 12.663 0.5 12.766C0.5 12.869 0.512374 13.047 0.527482 13.1614C0.543345 13.2815 0.581277 13.4499 0.617176 13.5595C0.651385 13.664 0.706097 13.8018 0.738759 13.8656C0.771403 13.9294 0.865594 14.074 0.948076 14.1869C1.03054 14.2998 1.14354 14.4391 1.19919 14.4963C1.25484 14.5535 1.36381 14.6481 1.44138 14.7064C1.51894 14.7648 1.66178 14.8519 1.75881 14.9001C1.85585 14.9482 1.99937 15.0077 2.07775 15.0323C2.15615 15.0569 2.28736 15.0896 2.36932 15.105C2.47565 15.125 2.62842 15.1331 2.90237 15.1331C3.28637 15.1331 3.28637 15.1331 3.29286 19.1542C3.29883 22.8533 3.30182 23.1876 3.32996 23.3271C3.3468 23.4106 3.38088 23.5512 3.4057 23.6396C3.43054 23.7279 3.47592 23.8645 3.50655 23.943C3.53718 24.0216 3.59076 24.137 3.62561 24.1996C3.66045 24.2621 3.73498 24.3746 3.79122 24.4495C3.84746 24.5244 3.95752 24.6461 4.03577 24.72C4.11403 24.7938 4.23187 24.8923 4.29763 24.9389C4.3634 24.9855 4.4929 25.0592 4.5854 25.1026C4.67791 25.1461 4.82644 25.2057 4.91547 25.2351C5.0045 25.2645 5.18255 25.3112 5.31115 25.3388C5.54496 25.389 5.54496 25.389 7.15468 25.3889C8.38002 25.3887 8.80304 25.3832 8.92626 25.3655C9.01529 25.3527 9.15856 25.3189 9.24466 25.2904C9.33074 25.2619 9.46833 25.2052 9.55041 25.1644C9.63248 25.1236 9.76691 25.0468 9.84914 24.9938C9.93137 24.9408 10.0396 24.8594 10.0897 24.813C10.1399 24.7665 10.2111 24.6843 10.248 24.6303C10.2849 24.5763 10.3367 24.4899 10.363 24.4382C10.3894 24.3865 10.4345 24.274 10.4633 24.1883C10.4922 24.1025 10.5304 23.9399 10.5483 23.827C10.5785 23.6373 10.581 23.4548 10.5822 21.425C10.5828 20.2168 10.5894 19.2186 10.5969 19.2067C10.6043 19.1947 10.6174 19.0144 10.626 18.8059C10.6392 18.4873 10.649 18.4005 10.6874 18.2618C10.7125 18.1711 10.7543 18.0553 10.7802 18.0044C10.8062 17.9536 10.867 17.8705 10.9153 17.8198C10.9637 17.769 11.0417 17.7068 11.0888 17.6814C11.1359 17.6561 11.2271 17.6215 11.2914 17.6046C11.3978 17.5765 11.5503 17.5738 13 17.5738C14.4497 17.5738 14.6022 17.5765 14.7086 17.6046C14.7729 17.6215 14.8641 17.6561 14.9112 17.6814C14.9583 17.7068 15.0363 17.769 15.0847 17.8198C15.133 17.8705 15.1938 17.9536 15.2198 18.0044C15.2457 18.0553 15.2875 18.1711 15.3126 18.2618C15.351 18.4005 15.3608 18.4873 15.374 18.8059C15.3826 19.0144 15.3957 19.1947 15.4031 19.2067C15.4106 19.2186 15.4172 20.2168 15.4178 21.425C15.419 23.4548 15.4215 23.6373 15.4517 23.827C15.4696 23.9399 15.5078 24.1025 15.5367 24.1883C15.5655 24.274 15.6106 24.3865 15.637 24.4382C15.6633 24.4899 15.7151 24.5763 15.752 24.6303C15.7889 24.6843 15.8601 24.7665 15.9103 24.813C15.9604 24.8594 16.0686 24.9408 16.1509 24.9938C16.2331 25.0468 16.3675 25.1236 16.4496 25.1644C16.5317 25.2052 16.6693 25.2619 16.7553 25.2904C16.8414 25.3189 16.9847 25.3527 17.0737 25.3655C17.197 25.3832 17.62 25.3887 18.8453 25.3889C20.455 25.389 20.455 25.389 20.6889 25.3388C20.8174 25.3112 20.9955 25.2645 21.0845 25.2351C21.1736 25.2057 21.3221 25.1461 21.4146 25.1026C21.5071 25.0592 21.6366 24.9855 21.7024 24.9389C21.7681 24.8923 21.886 24.7938 21.9642 24.72C22.0425 24.6461 22.1525 24.5244 22.2088 24.4495C22.265 24.3746 22.3396 24.2621 22.3744 24.1996C22.4092 24.137 22.4628 24.0216 22.4935 23.943C22.5241 23.8645 22.5695 23.7279 22.5943 23.6396C22.6191 23.5512 22.6532 23.4106 22.67 23.3271C22.6982 23.1876 22.7012 22.8533 22.7071 19.1542C22.7136 15.1331 22.7136 15.1331 23.0976 15.1331C23.3716 15.1331 23.5244 15.125 23.6307 15.105C23.7126 15.0896 23.8438 15.0569 23.9222 15.0323C24.0006 15.0077 24.1442 14.9482 24.2412 14.9001C24.3382 14.8519 24.4811 14.7648 24.5586 14.7064C24.6362 14.6481 24.7452 14.5535 24.8008 14.4963C24.8565 14.4391 24.9695 14.2998 25.0519 14.1869C25.1344 14.074 25.2286 13.9294 25.2612 13.8656C25.2939 13.8018 25.3486 13.664 25.3828 13.5595C25.4187 13.4499 25.4567 13.2815 25.4725 13.1614C25.4876 13.047 25.5 12.869 25.5 12.766C25.5 12.663 25.4883 12.5208 25.4741 12.4501C25.4598 12.3793 25.4351 12.25 25.4191 12.1627C25.4005 12.0615 25.3667 11.958 25.3258 11.8774C25.2905 11.8079 25.2127 11.6785 25.153 11.5899C25.0932 11.5013 25.0154 11.3926 24.98 11.3485C24.9447 11.3043 24.8347 11.1717 24.7357 11.054C24.6213 10.9178 22.8267 9.12377 19.807 6.12681C17.1952 3.53467 15.0464 1.39734 15.0318 1.37717C15.0173 1.357 14.9285 1.27713 14.8345 1.19969C14.7406 1.12223 14.5359 0.964451 14.3798 0.849073C14.2236 0.733678 14.0456 0.615694 13.9841 0.586881C13.9226 0.558068 13.8076 0.514295 13.7284 0.489624C13.6493 0.464935 13.5082 0.431837 13.415 0.416056C13.3078 0.3979 13.1491 0.387939 12.9833 0.388957C12.8392 0.389831 12.6565 0.401863 12.5773 0.415699Z" fill="#659AEB"/>
</svg>
